<svg width="156" height="82" viewBox="0 0 156 82" fill="none" xmlns="http://www.w3.org/2000/svg">
<path d="M72.66 18.8503L39.66 0.559129C38.9977 0.192278 38.2549 0 37.5 0C36.7451 0 36.0023 0.192278 35.34 0.559129L2.34 18.8503C1.63207 19.2425 1.04133 19.8201 0.629644 20.5228C0.21796 21.2254 0.000485731 22.0272 0 22.8442V59.1532C0.000485731 59.9701 0.21796 60.7719 0.629644 61.4746C1.04133 62.1772 1.63207 62.7549 2.34 63.147L35.34 81.4382C36.0017 81.8068 36.7447 82 37.5 82C38.2553 82 38.9983 81.8068 39.66 81.4382L72.66 63.147C73.3679 62.7549 73.9587 62.1772 74.3704 61.4746C74.782 60.7719 74.9995 59.9701 75 59.1532V22.8442C74.9995 22.0272 74.782 21.2254 74.3704 20.5228C73.9587 19.8201 73.3679 19.2425 72.66 18.8503ZM72 59.1532C71.9994 59.4251 71.9267 59.6918 71.7895 59.9255C71.6523 60.1593 71.4556 60.3514 71.22 60.4819L38.22 78.7731C37.9992 78.8954 37.7516 78.9595 37.5 78.9595C37.2484 78.9595 37.0008 78.8954 36.78 78.7731L3.78 60.4819C3.5444 60.3514 3.34772 60.1593 3.21052 59.9255C3.07331 59.6918 3.00061 59.4251 3 59.1532V22.8442C3.00061 22.5723 3.07331 22.3055 3.21052 22.0718C3.34772 21.8381 3.5444 21.6459 3.78 21.5154L36.78 3.22422C37.0001 3.09988 37.248 3.0346 37.5 3.0346C37.752 3.0346 37.9999 3.09988 38.22 3.22422L71.22 21.5154C71.4556 21.6459 71.6523 21.8381 71.7895 22.0718C71.9267 22.3055 71.9994 22.5723 72 22.8442V59.1532Z" fill="url(#paint0_linear_330_648)"/>
<path d="M48.84 26.6V55H43.36V42.88H30.48V55H24.96V26.6H30.48V38.08H43.36V26.6H48.84Z" fill="url(#paint1_linear_330_648)"/>
<path d="M99.775 23.25V41H96.35V33.425H88.3V41H84.85V23.25H88.3V30.425H96.35V23.25H99.775ZM103.478 41V23.25H111.328C112.145 23.25 112.895 23.4167 113.578 23.75C114.278 24.0833 114.878 24.5333 115.378 25.1C115.895 25.6667 116.286 26.3 116.553 27C116.836 27.7 116.978 28.4167 116.978 29.15C116.978 29.9 116.845 30.625 116.578 31.325C116.328 32.0083 115.961 32.6083 115.478 33.125C114.995 33.6417 114.428 34.0417 113.778 34.325L117.828 41H114.028L110.378 35.05H106.928V41H103.478ZM106.928 32.025H111.253C111.686 32.025 112.07 31.9 112.403 31.65C112.736 31.3833 113.003 31.0333 113.203 30.6C113.403 30.1667 113.503 29.6833 113.503 29.15C113.503 28.5833 113.386 28.0917 113.153 27.675C112.92 27.2417 112.62 26.9 112.253 26.65C111.903 26.4 111.52 26.275 111.103 26.275H106.928V32.025ZM127.556 41.125C126.139 41.125 124.931 40.8917 123.931 40.425C122.947 39.9417 122.147 39.2833 121.531 38.45C120.931 37.6167 120.489 36.675 120.206 35.625C119.922 34.5583 119.781 33.45 119.781 32.3V23.25H123.231V32.3C123.231 33.0333 123.297 33.75 123.431 34.45C123.581 35.1333 123.822 35.75 124.156 36.3C124.489 36.85 124.931 37.2833 125.481 37.6C126.031 37.9167 126.714 38.075 127.531 38.075C128.364 38.075 129.056 37.9167 129.606 37.6C130.172 37.2667 130.614 36.825 130.931 36.275C131.264 35.725 131.506 35.1083 131.656 34.425C131.806 33.725 131.881 33.0167 131.881 32.3V23.25H135.306V32.3C135.306 33.5167 135.156 34.6583 134.856 35.725C134.572 36.7917 134.114 37.7333 133.481 38.55C132.864 39.35 132.064 39.9833 131.081 40.45C130.097 40.9 128.922 41.125 127.556 41.125ZM142.231 29.6V41H138.781V23.25H141.531L150.706 34.95V23.275H154.156V41H151.281L142.231 29.6Z" fill="#182963"/>
<path d="M83.712 53V47.32H84.272V53H83.712ZM87.2017 53.056C86.919 53.056 86.6577 52.9973 86.4177 52.88C86.1777 52.7627 85.9697 52.6053 85.7937 52.408C85.623 52.2053 85.4897 51.976 85.3937 51.72C85.2977 51.464 85.2497 51.2 85.2497 50.928C85.2497 50.6347 85.295 50.36 85.3857 50.104C85.4817 49.8427 85.615 49.6107 85.7857 49.408C85.9617 49.2053 86.167 49.048 86.4017 48.936C86.6364 48.8187 86.8977 48.76 87.1857 48.76C87.543 48.76 87.8524 48.8507 88.1137 49.032C88.3804 49.2133 88.6044 49.4373 88.7857 49.704V48.832H89.2737V53.016C89.2737 53.4 89.1804 53.7227 88.9937 53.984C88.8124 54.2507 88.5644 54.4507 88.2497 54.584C87.9404 54.7173 87.6017 54.784 87.2337 54.784C86.759 54.784 86.375 54.6987 86.0817 54.528C85.7884 54.3573 85.5484 54.128 85.3617 53.84L85.6977 53.576C85.863 53.8373 86.0817 54.032 86.3537 54.16C86.631 54.288 86.9244 54.352 87.2337 54.352C87.5057 54.352 87.7537 54.3013 87.9777 54.2C88.207 54.104 88.3884 53.9573 88.5217 53.76C88.6604 53.5627 88.7297 53.3147 88.7297 53.016V52.192C88.5697 52.4533 88.351 52.664 88.0737 52.824C87.7964 52.9787 87.5057 53.056 87.2017 53.056ZM87.3537 52.6C87.519 52.6 87.6764 52.5707 87.8257 52.512C87.9804 52.4533 88.1217 52.376 88.2497 52.28C88.3777 52.1787 88.4844 52.0667 88.5697 51.944C88.655 51.8213 88.7084 51.696 88.7297 51.568V50.28C88.6497 50.0773 88.535 49.8987 88.3857 49.744C88.2364 49.584 88.0657 49.4613 87.8737 49.376C87.687 49.2853 87.4924 49.24 87.2897 49.24C87.055 49.24 86.8444 49.2907 86.6577 49.392C86.4764 49.488 86.3217 49.6187 86.1937 49.784C86.071 49.944 85.975 50.1253 85.9057 50.328C85.8364 50.5307 85.8017 50.7333 85.8017 50.936C85.8017 51.16 85.8417 51.3733 85.9217 51.576C86.0017 51.7733 86.111 51.952 86.2497 52.112C86.3937 52.2667 86.559 52.3867 86.7457 52.472C86.9377 52.5573 87.1404 52.6 87.3537 52.6ZM93.979 53H93.435V50.672C93.435 50.1813 93.363 49.824 93.219 49.6C93.075 49.3707 92.8483 49.256 92.539 49.256C92.3257 49.256 92.115 49.3093 91.907 49.416C91.699 49.5173 91.515 49.6587 91.355 49.84C91.2003 50.016 91.0883 50.2187 91.019 50.448V53H90.475V48.832H90.971V49.776C91.083 49.5733 91.2297 49.3973 91.411 49.248C91.5923 49.0933 91.7977 48.9733 92.027 48.888C92.2563 48.8027 92.4937 48.76 92.739 48.76C92.9683 48.76 93.163 48.8027 93.323 48.888C93.483 48.9733 93.611 49.096 93.707 49.256C93.803 49.4107 93.8723 49.6 93.915 49.824C93.9577 50.0427 93.979 50.288 93.979 50.56V53ZM95.1391 53V48.832H95.6831V53H95.1391ZM95.1391 47.96V47.16H95.6831V47.96H95.1391ZM98.8813 52.8C98.8386 52.816 98.7719 52.8453 98.6813 52.888C98.5906 52.9307 98.4813 52.968 98.3533 53C98.2253 53.032 98.0866 53.048 97.9373 53.048C97.7826 53.048 97.6359 53.0187 97.4973 52.96C97.3639 52.9013 97.2573 52.8133 97.1773 52.696C97.0973 52.5733 97.0573 52.424 97.0573 52.248V49.264H96.4813V48.832H97.0573V47.424H97.6013V48.832H98.5613V49.264H97.6013V52.096C97.6119 52.2453 97.6653 52.3573 97.7613 52.432C97.8626 52.5067 97.9773 52.544 98.1053 52.544C98.2546 52.544 98.3906 52.52 98.5133 52.472C98.6359 52.4187 98.7106 52.3813 98.7373 52.36L98.8813 52.8ZM101.291 53.08C100.992 53.08 100.715 53.024 100.459 52.912C100.203 52.7947 99.9813 52.6373 99.7946 52.44C99.608 52.2373 99.4613 52.0053 99.3546 51.744C99.2533 51.4827 99.2026 51.2027 99.2026 50.904C99.2026 50.5147 99.2906 50.1573 99.4666 49.832C99.648 49.5067 99.896 49.248 100.211 49.056C100.525 48.8587 100.883 48.76 101.283 48.76C101.693 48.76 102.051 48.8587 102.355 49.056C102.664 49.2533 102.907 49.5147 103.083 49.84C103.259 50.16 103.347 50.512 103.347 50.896C103.347 50.9387 103.347 50.9813 103.347 51.024C103.347 51.0613 103.344 51.0907 103.339 51.112H99.7706C99.7973 51.4107 99.88 51.6773 100.019 51.912C100.163 52.1413 100.347 52.3253 100.571 52.464C100.8 52.5973 101.048 52.664 101.315 52.664C101.587 52.664 101.843 52.5947 102.083 52.456C102.328 52.3173 102.499 52.136 102.595 51.912L103.067 52.04C102.981 52.2373 102.851 52.416 102.675 52.576C102.499 52.736 102.291 52.8613 102.051 52.952C101.816 53.0373 101.563 53.08 101.291 53.08ZM99.7546 50.72H102.835C102.813 50.416 102.731 50.1493 102.587 49.92C102.448 49.6907 102.264 49.512 102.035 49.384C101.811 49.2507 101.563 49.184 101.291 49.184C101.019 49.184 100.771 49.2507 100.547 49.384C100.323 49.512 100.139 49.6933 99.9946 49.928C99.856 50.1573 99.776 50.4213 99.7546 50.72ZM106.246 54.28C106.321 54.2853 106.393 54.288 106.462 54.288C106.532 54.2933 106.582 54.2907 106.614 54.28C106.678 54.2693 106.74 54.232 106.798 54.168C106.857 54.104 106.926 53.9813 107.006 53.8C107.086 53.6187 107.198 53.352 107.342 53L105.526 48.832H106.102L107.63 52.44L109.038 48.832H109.582L107.422 54.208C107.385 54.3093 107.329 54.4027 107.254 54.488C107.18 54.5787 107.086 54.648 106.974 54.696C106.868 54.7493 106.734 54.7787 106.574 54.784C106.526 54.7893 106.476 54.7893 106.422 54.784C106.374 54.784 106.316 54.7787 106.246 54.768V54.28ZM111.97 53.08C111.671 53.08 111.394 53.024 111.138 52.912C110.887 52.7947 110.668 52.6373 110.482 52.44C110.3 52.2373 110.159 52.008 110.058 51.752C109.956 51.4907 109.906 51.216 109.906 50.928C109.906 50.6293 109.956 50.352 110.058 50.096C110.159 49.8347 110.303 49.6053 110.49 49.408C110.676 49.2053 110.895 49.048 111.146 48.936C111.402 48.8187 111.679 48.76 111.978 48.76C112.276 48.76 112.551 48.8187 112.802 48.936C113.052 49.048 113.271 49.2053 113.458 49.408C113.644 49.6053 113.788 49.8347 113.89 50.096C113.991 50.352 114.042 50.6293 114.042 50.928C114.042 51.216 113.991 51.4907 113.89 51.752C113.788 52.008 113.644 52.2373 113.458 52.44C113.276 52.6373 113.058 52.7947 112.802 52.912C112.551 53.024 112.274 53.08 111.97 53.08ZM110.458 50.936C110.458 51.2453 110.524 51.528 110.658 51.784C110.796 52.0347 110.98 52.2347 111.21 52.384C111.439 52.528 111.692 52.6 111.97 52.6C112.247 52.6 112.5 52.5253 112.73 52.376C112.959 52.2267 113.143 52.024 113.282 51.768C113.42 51.5067 113.49 51.224 113.49 50.92C113.49 50.6107 113.42 50.328 113.282 50.072C113.143 49.816 112.959 49.6133 112.73 49.464C112.5 49.3147 112.247 49.24 111.97 49.24C111.692 49.24 111.439 49.3173 111.21 49.472C110.986 49.6267 110.804 49.832 110.666 50.088C110.527 50.3387 110.458 50.6213 110.458 50.936ZM114.912 51.28V48.832H115.456V51.184C115.456 51.6587 115.536 52.0133 115.696 52.248C115.861 52.4827 116.104 52.6 116.424 52.6C116.637 52.6 116.842 52.5547 117.04 52.464C117.242 52.368 117.421 52.2347 117.576 52.064C117.73 51.888 117.848 51.6853 117.928 51.456V48.832H118.472V52.344C118.472 52.4187 118.488 52.4747 118.52 52.512C118.552 52.544 118.6 52.5627 118.664 52.568V53C118.6 53.0053 118.549 53.008 118.512 53.008C118.474 53.0133 118.44 53.016 118.408 53.016C118.301 53.0053 118.208 52.9627 118.128 52.888C118.053 52.8133 118.013 52.7227 118.008 52.616L117.992 52.056C117.81 52.376 117.562 52.6267 117.248 52.808C116.938 52.9893 116.602 53.08 116.24 53.08C115.802 53.08 115.472 52.928 115.248 52.624C115.024 52.32 114.912 51.872 114.912 51.28ZM121.782 49.312C121.419 49.3227 121.099 49.424 120.822 49.616C120.55 49.808 120.358 50.072 120.246 50.408V53H119.702V48.832H120.214V49.832C120.358 49.5387 120.547 49.3013 120.782 49.12C121.022 48.9387 121.275 48.8373 121.542 48.816C121.595 48.8107 121.64 48.808 121.678 48.808C121.72 48.808 121.755 48.8107 121.782 48.816V49.312ZM129.379 48.832H129.915L128.123 53H127.651L126.779 50.928L125.915 53H125.443L123.651 48.832H124.179L125.699 52.44L126.467 50.56L125.763 48.84H126.251L126.779 50.192L127.315 48.84H127.795L127.099 50.56L127.867 52.44L129.379 48.832ZM132.298 53.08C132 53.08 131.722 53.024 131.466 52.912C131.21 52.7947 130.989 52.6373 130.802 52.44C130.616 52.2373 130.469 52.0053 130.362 51.744C130.261 51.4827 130.21 51.2027 130.21 50.904C130.21 50.5147 130.298 50.1573 130.474 49.832C130.656 49.5067 130.904 49.248 131.218 49.056C131.533 48.8587 131.89 48.76 132.29 48.76C132.701 48.76 133.058 48.8587 133.362 49.056C133.672 49.2533 133.914 49.5147 134.09 49.84C134.266 50.16 134.354 50.512 134.354 50.896C134.354 50.9387 134.354 50.9813 134.354 51.024C134.354 51.0613 134.352 51.0907 134.346 51.112H130.778C130.805 51.4107 130.888 51.6773 131.026 51.912C131.17 52.1413 131.354 52.3253 131.578 52.464C131.808 52.5973 132.056 52.664 132.322 52.664C132.594 52.664 132.85 52.5947 133.09 52.456C133.336 52.3173 133.506 52.136 133.602 51.912L134.074 52.04C133.989 52.2373 133.858 52.416 133.682 52.576C133.506 52.736 133.298 52.8613 133.058 52.952C132.824 53.0373 132.57 53.08 132.298 53.08ZM130.762 50.72H133.842C133.821 50.416 133.738 50.1493 133.594 49.92C133.456 49.6907 133.272 49.512 133.042 49.384C132.818 49.2507 132.57 49.184 132.298 49.184C132.026 49.184 131.778 49.2507 131.554 49.384C131.33 49.512 131.146 49.6933 131.002 49.928C130.864 50.1573 130.784 50.4213 130.762 50.72ZM137.234 53.08C136.908 53.08 136.607 52.9973 136.33 52.832C136.052 52.6613 135.836 52.448 135.682 52.192V53H135.194V47.16H135.738V49.704C135.924 49.4213 136.148 49.1947 136.41 49.024C136.671 48.848 136.975 48.76 137.322 48.76C137.615 48.76 137.876 48.8213 138.106 48.944C138.34 49.0667 138.54 49.232 138.706 49.44C138.871 49.6427 138.996 49.8747 139.082 50.136C139.167 50.392 139.21 50.656 139.21 50.928C139.21 51.2213 139.159 51.496 139.058 51.752C138.962 52.008 138.823 52.2373 138.642 52.44C138.46 52.6373 138.25 52.7947 138.01 52.912C137.775 53.024 137.516 53.08 137.234 53.08ZM137.106 52.6C137.33 52.6 137.538 52.5547 137.73 52.464C137.922 52.3733 138.087 52.248 138.226 52.088C138.364 51.928 138.471 51.7493 138.546 51.552C138.62 51.3493 138.658 51.1413 138.658 50.928C138.658 50.6347 138.594 50.36 138.466 50.104C138.343 49.8427 138.17 49.6347 137.946 49.48C137.727 49.32 137.468 49.24 137.17 49.24C136.956 49.24 136.756 49.288 136.57 49.384C136.388 49.48 136.226 49.608 136.082 49.768C135.943 49.9227 135.828 50.0933 135.738 50.28V51.576C135.759 51.72 135.815 51.856 135.906 51.984C135.996 52.1067 136.108 52.2133 136.242 52.304C136.38 52.3947 136.524 52.4667 136.674 52.52C136.823 52.5733 136.967 52.6 137.106 52.6ZM85.728 62.08C85.3813 62.08 85.0693 61.9893 84.792 61.808C84.52 61.6267 84.304 61.4027 84.144 61.136V63.704H83.6V57.832H84.088V58.64C84.2533 58.3787 84.4747 58.168 84.752 58.008C85.0293 57.8427 85.3253 57.76 85.64 57.76C85.928 57.76 86.192 57.8213 86.432 57.944C86.672 58.0613 86.88 58.2213 87.056 58.424C87.232 58.6267 87.368 58.8587 87.464 59.12C87.5653 59.376 87.616 59.6427 87.616 59.92C87.616 60.3093 87.536 60.6693 87.376 61C87.2213 61.3253 87.0027 61.5867 86.72 61.784C86.4373 61.9813 86.1067 62.08 85.728 62.08ZM85.576 61.6C85.8053 61.6 86.0107 61.5547 86.192 61.464C86.3733 61.368 86.528 61.24 86.656 61.08C86.7893 60.92 86.8907 60.7413 86.96 60.544C87.0293 60.3413 87.064 60.1333 87.064 59.92C87.064 59.696 87.024 59.4827 86.944 59.28C86.8693 59.0773 86.76 58.8987 86.616 58.744C86.472 58.5893 86.3067 58.4667 86.12 58.376C85.9333 58.2853 85.7307 58.24 85.512 58.24C85.3733 58.24 85.2293 58.2667 85.08 58.32C84.9307 58.3733 84.7867 58.4507 84.648 58.552C84.5147 58.648 84.4027 58.7573 84.312 58.88C84.2213 59.0027 84.1653 59.1333 84.144 59.272V60.552C84.2293 60.7493 84.344 60.928 84.488 61.088C84.632 61.2427 84.7973 61.368 84.984 61.464C85.176 61.5547 85.3733 61.6 85.576 61.6ZM90.6175 58.312C90.2548 58.3227 89.9348 58.424 89.6575 58.616C89.3855 58.808 89.1935 59.072 89.0815 59.408V62H88.5375V57.832H89.0495V58.832C89.1935 58.5387 89.3828 58.3013 89.6175 58.12C89.8575 57.9387 90.1108 57.8373 90.3775 57.816C90.4308 57.8107 90.4762 57.808 90.5135 57.808C90.5562 57.808 90.5908 57.8107 90.6175 57.816V58.312ZM93.0094 62.08C92.7107 62.08 92.4334 62.024 92.1774 61.912C91.9214 61.7947 91.7 61.6373 91.5134 61.44C91.3267 61.2373 91.18 61.0053 91.0734 60.744C90.972 60.4827 90.9214 60.2027 90.9214 59.904C90.9214 59.5147 91.0094 59.1573 91.1854 58.832C91.3667 58.5067 91.6147 58.248 91.9294 58.056C92.244 57.8587 92.6014 57.76 93.0014 57.76C93.412 57.76 93.7694 57.8587 94.0734 58.056C94.3827 58.2533 94.6254 58.5147 94.8014 58.84C94.9774 59.16 95.0654 59.512 95.0654 59.896C95.0654 59.9387 95.0654 59.9813 95.0654 60.024C95.0654 60.0613 95.0627 60.0907 95.0574 60.112H91.4894C91.516 60.4107 91.5987 60.6773 91.7374 60.912C91.8814 61.1413 92.0654 61.3253 92.2894 61.464C92.5187 61.5973 92.7667 61.664 93.0334 61.664C93.3054 61.664 93.5614 61.5947 93.8014 61.456C94.0467 61.3173 94.2174 61.136 94.3134 60.912L94.7854 61.04C94.7 61.2373 94.5694 61.416 94.3934 61.576C94.2174 61.736 94.0094 61.8613 93.7694 61.952C93.5347 62.0373 93.2814 62.08 93.0094 62.08ZM91.4734 59.72H94.5534C94.532 59.416 94.4494 59.1493 94.3054 58.92C94.1667 58.6907 93.9827 58.512 93.7534 58.384C93.5294 58.2507 93.2814 58.184 93.0094 58.184C92.7374 58.184 92.4894 58.2507 92.2654 58.384C92.0414 58.512 91.8574 58.6933 91.7134 58.928C91.5747 59.1573 91.4947 59.4213 91.4734 59.72ZM96.0578 62V58.264H95.4818V57.832H96.0578V57.72C96.0578 57.3787 96.1058 57.0853 96.2018 56.84C96.3031 56.5947 96.4445 56.408 96.6258 56.28C96.8125 56.1467 97.0311 56.08 97.2818 56.08C97.4471 56.08 97.6071 56.104 97.7618 56.152C97.9165 56.2 98.0498 56.264 98.1618 56.344L97.9938 56.736C97.9245 56.6773 97.8338 56.632 97.7218 56.6C97.6098 56.568 97.4978 56.552 97.3858 56.552C97.1351 56.552 96.9405 56.6507 96.8018 56.848C96.6685 57.0453 96.6018 57.3307 96.6018 57.704V57.832H97.7538V58.264H96.6018V62H96.0578ZM100.166 62.08C99.867 62.08 99.5896 62.024 99.3336 61.912C99.0776 61.7947 98.8563 61.6373 98.6696 61.44C98.483 61.2373 98.3363 61.0053 98.2296 60.744C98.1283 60.4827 98.0776 60.2027 98.0776 59.904C98.0776 59.5147 98.1656 59.1573 98.3416 58.832C98.523 58.5067 98.771 58.248 99.0856 58.056C99.4003 57.8587 99.7576 57.76 100.158 57.76C100.568 57.76 100.926 57.8587 101.23 58.056C101.539 58.2533 101.782 58.5147 101.958 58.84C102.134 59.16 102.222 59.512 102.222 59.896C102.222 59.9387 102.222 59.9813 102.222 60.024C102.222 60.0613 102.219 60.0907 102.214 60.112H98.6456C98.6723 60.4107 98.755 60.6773 98.8936 60.912C99.0376 61.1413 99.2216 61.3253 99.4456 61.464C99.675 61.5973 99.923 61.664 100.19 61.664C100.462 61.664 100.718 61.5947 100.958 61.456C101.203 61.3173 101.374 61.136 101.47 60.912L101.942 61.04C101.856 61.2373 101.726 61.416 101.55 61.576C101.374 61.736 101.166 61.8613 100.926 61.952C100.691 62.0373 100.438 62.08 100.166 62.08ZM98.6296 59.72H101.71C101.688 59.416 101.606 59.1493 101.462 58.92C101.323 58.6907 101.139 58.512 100.91 58.384C100.686 58.2507 100.438 58.184 100.166 58.184C99.8936 58.184 99.6456 58.2507 99.4216 58.384C99.1976 58.512 99.0136 58.6933 98.8696 58.928C98.731 59.1573 98.651 59.4213 98.6296 59.72ZM105.141 58.312C104.778 58.3227 104.458 58.424 104.181 58.616C103.909 58.808 103.717 59.072 103.605 59.408V62H103.061V57.832H103.573V58.832C103.717 58.5387 103.906 58.3013 104.141 58.12C104.381 57.9387 104.634 57.8373 104.901 57.816C104.954 57.8107 105 57.808 105.037 57.808C105.08 57.808 105.114 57.8107 105.141 57.816V58.312ZM107.533 62.08C107.234 62.08 106.957 62.024 106.701 61.912C106.445 61.7947 106.223 61.6373 106.037 61.44C105.85 61.2373 105.703 61.0053 105.597 60.744C105.495 60.4827 105.445 60.2027 105.445 59.904C105.445 59.5147 105.533 59.1573 105.709 58.832C105.89 58.5067 106.138 58.248 106.453 58.056C106.767 57.8587 107.125 57.76 107.525 57.76C107.935 57.76 108.293 57.8587 108.597 58.056C108.906 58.2533 109.149 58.5147 109.325 58.84C109.501 59.16 109.589 59.512 109.589 59.896C109.589 59.9387 109.589 59.9813 109.589 60.024C109.589 60.0613 109.586 60.0907 109.581 60.112H106.013C106.039 60.4107 106.122 60.6773 106.261 60.912C106.405 61.1413 106.589 61.3253 106.813 61.464C107.042 61.5973 107.29 61.664 107.557 61.664C107.829 61.664 108.085 61.5947 108.325 61.456C108.57 61.3173 108.741 61.136 108.837 60.912L109.309 61.04C109.223 61.2373 109.093 61.416 108.917 61.576C108.741 61.736 108.533 61.8613 108.293 61.952C108.058 62.0373 107.805 62.08 107.533 62.08ZM105.997 59.72H109.077C109.055 59.416 108.973 59.1493 108.829 58.92C108.69 58.6907 108.506 58.512 108.277 58.384C108.053 58.2507 107.805 58.184 107.533 58.184C107.261 58.184 107.013 58.2507 106.789 58.384C106.565 58.512 106.381 58.6933 106.237 58.928C106.098 59.1573 106.018 59.4213 105.997 59.72ZM113.932 62H113.388V59.672C113.388 59.1813 113.316 58.824 113.172 58.6C113.028 58.3707 112.801 58.256 112.492 58.256C112.279 58.256 112.068 58.3093 111.86 58.416C111.652 58.5173 111.468 58.6587 111.308 58.84C111.153 59.016 111.041 59.2187 110.972 59.448V62H110.428V57.832H110.924V58.776C111.036 58.5733 111.183 58.3973 111.364 58.248C111.545 58.0933 111.751 57.9733 111.98 57.888C112.209 57.8027 112.447 57.76 112.692 57.76C112.921 57.76 113.116 57.8027 113.276 57.888C113.436 57.9733 113.564 58.096 113.66 58.256C113.756 58.4107 113.825 58.6 113.868 58.824C113.911 59.0427 113.932 59.288 113.932 59.56V62ZM116.9 62.08C116.596 62.08 116.316 62.024 116.06 61.912C115.81 61.7947 115.588 61.6347 115.396 61.432C115.21 61.2293 115.063 60.9973 114.956 60.736C114.855 60.4747 114.804 60.1973 114.804 59.904C114.804 59.5093 114.892 59.1493 115.068 58.824C115.244 58.4987 115.49 58.24 115.804 58.048C116.119 57.856 116.482 57.76 116.892 57.76C117.282 57.76 117.626 57.8507 117.924 58.032C118.223 58.208 118.444 58.448 118.588 58.752L118.06 58.92C117.943 58.7067 117.778 58.5413 117.564 58.424C117.356 58.3013 117.124 58.24 116.868 58.24C116.591 58.24 116.338 58.312 116.108 58.456C115.879 58.6 115.695 58.7973 115.556 59.048C115.423 59.2987 115.356 59.584 115.356 59.904C115.356 60.2187 115.426 60.504 115.564 60.76C115.703 61.016 115.887 61.2213 116.116 61.376C116.346 61.5253 116.599 61.6 116.876 61.6C117.058 61.6 117.231 61.568 117.396 61.504C117.567 61.44 117.714 61.3547 117.836 61.248C117.964 61.136 118.05 61.016 118.092 60.888L118.628 61.048C118.554 61.2453 118.428 61.424 118.252 61.584C118.082 61.7387 117.879 61.8613 117.644 61.952C117.415 62.0373 117.167 62.08 116.9 62.08ZM121.244 62.08C120.945 62.08 120.668 62.024 120.412 61.912C120.156 61.7947 119.934 61.6373 119.748 61.44C119.561 61.2373 119.414 61.0053 119.308 60.744C119.206 60.4827 119.156 60.2027 119.156 59.904C119.156 59.5147 119.244 59.1573 119.42 58.832C119.601 58.5067 119.849 58.248 120.164 58.056C120.478 57.8587 120.836 57.76 121.236 57.76C121.646 57.76 122.004 57.8587 122.308 58.056C122.617 58.2533 122.86 58.5147 123.036 58.84C123.212 59.16 123.3 59.512 123.3 59.896C123.3 59.9387 123.3 59.9813 123.3 60.024C123.3 60.0613 123.297 60.0907 123.292 60.112H119.724C119.75 60.4107 119.833 60.6773 119.972 60.912C120.116 61.1413 120.3 61.3253 120.524 61.464C120.753 61.5973 121.001 61.664 121.268 61.664C121.54 61.664 121.796 61.5947 122.036 61.456C122.281 61.3173 122.452 61.136 122.548 60.912L123.02 61.04C122.934 61.2373 122.804 61.416 122.628 61.576C122.452 61.736 122.244 61.8613 122.004 61.952C121.769 62.0373 121.516 62.08 121.244 62.08ZM119.708 59.72H122.788C122.766 59.416 122.684 59.1493 122.54 58.92C122.401 58.6907 122.217 58.512 121.988 58.384C121.764 58.2507 121.516 58.184 121.244 58.184C120.972 58.184 120.724 58.2507 120.5 58.384C120.276 58.512 120.092 58.6933 119.948 58.928C119.809 59.1573 119.729 59.4213 119.708 59.72Z" fill="#182963"/>
<defs>
<linearGradient id="paint0_linear_330_648" x1="37.5" y1="0" x2="37.5" y2="82" gradientUnits="userSpaceOnUse">
<stop stop-color="#084378"/>
<stop offset="0.276042" stop-color="#483BB5"/>
<stop offset="0.411458" stop-color="#347BB8"/>
<stop offset="0.557292" stop-color="#12A6D0"/>
<stop offset="0.744792" stop-color="#52EFF2"/>
<stop offset="1" stop-color="#12A6C8"/>
</linearGradient>
<linearGradient id="paint1_linear_330_648" x1="37" y1="17" x2="37" y2="64" gradientUnits="userSpaceOnUse">
<stop stop-color="#084378"/>
<stop offset="0.276042" stop-color="#483BB5"/>
<stop offset="0.411458" stop-color="#347BB8"/>
<stop offset="0.557292" stop-color="#12A6D0"/>
<stop offset="0.744792" stop-color="#52EFF2"/>
<stop offset="1" stop-color="#12A6C8"/>
</linearGradient>
</defs>
</svg>
