<svg width="30" height="30" viewBox="0 0 30 30" fill="none" xmlns="http://www.w3.org/2000/svg">
<path fill-rule="evenodd" clip-rule="evenodd" d="M1.875 5.625C1.875 4.93464 2.43464 4.375 3.125 4.375H26.875C27.5654 4.375 28.125 4.93464 28.125 5.625C28.125 6.31536 27.5654 6.875 26.875 6.875H3.125C2.43464 6.875 1.875 6.31536 1.875 5.625Z" fill="#182963"/>
<path fill-rule="evenodd" clip-rule="evenodd" d="M1.875 15C1.875 14.3096 2.43464 13.75 3.125 13.75H26.875C27.5654 13.75 28.125 14.3096 28.125 15C28.125 15.6904 27.5654 16.25 26.875 16.25H3.125C2.43464 16.25 1.875 15.6904 1.875 15Z" fill="#182963"/>
<path fill-rule="evenodd" clip-rule="evenodd" d="M1.875 24.375C1.875 23.6846 2.43464 23.125 3.125 23.125H26.875C27.5654 23.125 28.125 23.6846 28.125 24.375C28.125 25.0654 27.5654 25.625 26.875 25.625H3.125C2.43464 25.625 1.875 25.0654 1.875 24.375Z" fill="#182963"/>
</svg>
