<svg width="37" height="36" viewBox="0 0 37 36" fill="none" xmlns="http://www.w3.org/2000/svg">
<g id="Group">
<path id="Vector" d="M18.5 25.5C20.4891 25.5 22.3968 24.7098 23.8033 23.3033C25.2098 21.8968 26 19.9891 26 18C26 16.0109 25.2098 14.1032 23.8033 12.6967C22.3968 11.2902 20.4891 10.5 18.5 10.5C16.5109 10.5 14.6032 11.2902 13.1967 12.6967C11.7902 14.1032 11 16.0109 11 18C11 19.9891 11.7902 21.8968 13.1967 23.3033C14.6032 24.7098 16.5109 25.5 18.5 25.5Z" stroke="url(#paint0_linear_1320_3191)" stroke-width="2" stroke-linecap="round" stroke-linejoin="round"/>
<path id="Vector_2" d="M1.625 25.5V10.5C1.625 8.0136 2.61272 5.62903 4.37087 3.87087C6.12903 2.11272 8.5136 1.125 11 1.125H26C28.4864 1.125 30.871 2.11272 32.6291 3.87087C34.3873 5.62903 35.375 8.0136 35.375 10.5V25.5C35.375 27.9864 34.3873 30.371 32.6291 32.1291C30.871 33.8873 28.4864 34.875 26 34.875H11C8.5136 34.875 6.12903 33.8873 4.37087 32.1291C2.61272 30.371 1.625 27.9864 1.625 25.5Z" stroke="url(#paint1_linear_1320_3191)" stroke-width="2"/>
<path id="Vector_3" d="M28.8125 7.70617L28.8312 7.68555" stroke="url(#paint2_linear_1320_3191)" stroke-width="3" stroke-linecap="round" stroke-linejoin="round"/>
</g>
<defs>
<linearGradient id="paint0_linear_1320_3191" x1="18.5" y1="10.5" x2="18.5" y2="25.5" gradientUnits="userSpaceOnUse">
<stop stop-color="#084378"/>
<stop offset="0.0001" stop-color="#0A437A"/>
<stop offset="0.276042" stop-color="#483BB5"/>
<stop offset="0.411458" stop-color="#347BB8"/>
<stop offset="0.557292" stop-color="#12A6D0"/>
<stop offset="0.744792" stop-color="#52EFF2"/>
<stop offset="1" stop-color="#12A6C8"/>
</linearGradient>
<linearGradient id="paint1_linear_1320_3191" x1="18.5" y1="1.125" x2="18.5" y2="34.875" gradientUnits="userSpaceOnUse">
<stop stop-color="#084378"/>
<stop offset="0.0001" stop-color="#0A437A"/>
<stop offset="0.276042" stop-color="#483BB5"/>
<stop offset="0.411458" stop-color="#347BB8"/>
<stop offset="0.557292" stop-color="#12A6D0"/>
<stop offset="0.744792" stop-color="#52EFF2"/>
<stop offset="1" stop-color="#12A6C8"/>
</linearGradient>
<linearGradient id="paint2_linear_1320_3191" x1="28.8219" y1="7.68555" x2="28.8219" y2="7.70617" gradientUnits="userSpaceOnUse">
<stop stop-color="#084378"/>
<stop offset="0.0001" stop-color="#0A437A"/>
<stop offset="0.276042" stop-color="#483BB5"/>
<stop offset="0.411458" stop-color="#347BB8"/>
<stop offset="0.557292" stop-color="#12A6D0"/>
<stop offset="0.744792" stop-color="#52EFF2"/>
<stop offset="1" stop-color="#12A6C8"/>
</linearGradient>
</defs>
</svg>
