<svg width="32" height="32" viewBox="0 0 32 32" fill="none" xmlns="http://www.w3.org/2000/svg">
<g id="Group">
<path id="Vector" d="M16 22.6663C17.7681 22.6663 19.4638 21.964 20.714 20.7137C21.9643 19.4635 22.6666 17.7678 22.6666 15.9997C22.6666 14.2316 21.9643 12.5359 20.714 11.2856C19.4638 10.0354 17.7681 9.33301 16 9.33301C14.2319 9.33301 12.5362 10.0354 11.2859 11.2856C10.0357 12.5359 9.33331 14.2316 9.33331 15.9997C9.33331 17.7678 10.0357 19.4635 11.2859 20.7137C12.5362 21.964 14.2319 22.6663 16 22.6663Z" stroke="#0A0D1A" stroke-linecap="round" stroke-linejoin="round"/>
<path id="Vector_2" d="M1 22.6667V9.33333C1 7.1232 1.87797 5.00358 3.44078 3.44078C5.00358 1.87797 7.1232 1 9.33333 1H22.6667C24.8768 1 26.9964 1.87797 28.5592 3.44078C30.122 5.00358 31 7.1232 31 9.33333V22.6667C31 24.8768 30.122 26.9964 28.5592 28.5592C26.9964 30.122 24.8768 31 22.6667 31H9.33333C7.1232 31 5.00358 30.122 3.44078 28.5592C1.87797 26.9964 1 24.8768 1 22.6667Z" stroke="#0A0D1A"/>
<path id="Vector_3" d="M25.1667 6.85036L25.1833 6.83203" stroke="#0A0D1A" stroke-width="1.5" stroke-linecap="round" stroke-linejoin="round"/>
</g>
</svg>
